<svg xmlns="http://www.w3.org/2000/svg" xmlns:xlink="http://www.w3.org/1999/xlink" contentStyleType="text/css" data-diagram-type="DESCRIPTION" height="857px" preserveAspectRatio="none" style="width:392px;height:857px;background:#FFFFFF;" version="1.1" viewBox="0 0 392 857" width="392px" zoomAndPan="magnify"><title>Detailed View: Input, Detection, and Feature Extraction</title><defs/><g><g class="title" data-source-line="7"><text fill="#000000" font-family="sans-serif" font-size="14" font-weight="bold" lengthAdjust="spacing" textLength="364.0615" x="10" y="24.5332">Detailed View: Input, Detection, and Feature Extraction</text></g><!--cluster Input--><g class="cluster" data-entity="Input" data-source-line="9" data-uid="ent0002" id="cluster_Input"><rect fill="none" height="206" rx="2.5" ry="2.5" style="stroke:#181818;stroke-width:1;" width="136" x="165.9358" y="45.6094"/><path d="M210.1428,45.6094 L210.1428,56.2188 L200.1428,66.2188 L165.9358,66.2188" fill="none" style="stroke:#181818;stroke-width:1;"/><text fill="#000000" font-family="sans-serif" font-size="14" font-weight="bold" lengthAdjust="spacing" textLength="34.207" x="168.9358" y="61.1426">Input</text></g><!--cluster Detection--><g class="cluster" data-entity="Detection" data-source-line="14" data-uid="ent0005" id="cluster_Detection"><rect fill="none" height="232" rx="2.5" ry="2.5" style="stroke:#181818;stroke-width:1;" width="148" x="90.9358" y="301.6094"/><path d="M164.7219,301.6094 L164.7219,312.2188 L154.7219,322.2188 L90.9358,322.2188" fill="none" style="stroke:#181818;stroke-width:1;"/><text fill="#000000" font-family="sans-serif" font-size="14" font-weight="bold" lengthAdjust="spacing" textLength="63.7861" x="93.9358" y="317.1426">Detection</text></g><!--cluster Feature\nExtraction--><g class="cluster" data-entity="Feature\nExtraction" data-source-line="19" data-uid="ent0008" id="cluster_Feature\nExtraction"><rect fill="none" height="268" rx="2.5" ry="2.5" style="stroke:#181818;stroke-width:1;" width="214" x="86.9358" y="583.6094"/><path d="M165.3977,583.6094 L165.3977,611.8281 L155.3977,621.8281 L86.9358,621.8281" fill="none" style="stroke:#181818;stroke-width:1;"/><text fill="#000000" font-family="sans-serif" font-size="14" font-weight="bold" lengthAdjust="spacing" textLength="50.5723" x="98.8806" y="599.1426">Feature</text><text fill="#000000" font-family="sans-serif" font-size="14" font-weight="bold" lengthAdjust="spacing" textLength="68.4619" x="89.9358" y="616.752">Extraction</text></g><!--entity VideoSource--><g class="entity" data-entity="VideoSource" data-source-line="10" data-uid="ent0003" id="entity_VideoSource"><rect fill="#87CEFA" height="37.6094" rx="2.5" ry="2.5" style="stroke:#181818;stroke-width:0.5;" width="104.0547" x="181.9358" y="81.6094"/><text fill="#000000" font-family="sans-serif" font-size="14" lengthAdjust="spacing" textLength="84.0547" x="191.9358" y="106.1426">Video Source</text></g><!--entity Frame--><g class="entity" data-entity="Frame" data-source-line="11" data-uid="ent0004" id="entity_Frame"><rect fill="#87CEFA" height="37.6094" rx="2.5" ry="2.5" style="stroke:#181818;stroke-width:0.5;" width="100.1445" x="183.9358" y="197.6094"/><text fill="#000000" font-family="sans-serif" font-size="14" lengthAdjust="spacing" textLength="80.1445" x="193.9358" y="222.1426">Video Frame</text></g><!--entity YOLODetector--><g class="entity" data-entity="YOLODetector" data-source-line="15" data-uid="ent0006" id="entity_YOLODetector"><rect fill="#87CEFA" height="37.6094" rx="2.5" ry="2.5" style="stroke:#181818;stroke-width:0.5;" width="115.7031" x="106.9358" y="337.6094"/><text fill="#000000" font-family="sans-serif" font-size="14" lengthAdjust="spacing" textLength="95.7031" x="116.9358" y="362.1426">YOLO Detector</text></g><!--entity Detections--><g class="entity" data-entity="Detections" data-source-line="16" data-uid="ent0007" id="entity_Detections"><path d="M134.4358,463.6094 C134.4358,453.6094 174.0081,453.6094 174.0081,453.6094 C174.0081,453.6094 213.5803,453.6094 213.5803,463.6094 L213.5803,507.8281 C213.5803,517.8281 174.0081,517.8281 174.0081,517.8281 C174.0081,517.8281 134.4358,517.8281 134.4358,507.8281 L134.4358,463.6094" fill="#90EE90" style="stroke:#181818;stroke-width:0.5;"/><path d="M134.4358,463.6094 C134.4358,473.6094 174.0081,473.6094 174.0081,473.6094 C174.0081,473.6094 213.5803,473.6094 213.5803,463.6094" fill="none" style="stroke:#181818;stroke-width:0.5;"/><text fill="#000000" font-family="sans-serif" font-size="14" lengthAdjust="spacing" textLength="59.1445" x="144.4358" y="492.1426">Detection</text><text fill="#000000" font-family="sans-serif" font-size="14" lengthAdjust="spacing" textLength="46.6826" x="144.4358" y="509.752">Results</text></g><!--entity FeatureExtractor--><g class="entity" data-entity="FeatureExtractor" data-source-line="20" data-uid="ent0009" id="entity_FeatureExtractor"><rect fill="#87CEFA" height="37.6094" rx="2.5" ry="2.5" style="stroke:#181818;stroke-width:0.5;" width="181.8271" x="102.9358" y="637.6094"/><text fill="#000000" font-family="sans-serif" font-size="14" lengthAdjust="spacing" textLength="161.8271" x="112.9358" y="662.1426">DINOv2 Feature Extractor</text></g><!--entity Features--><g class="entity" data-entity="Features" data-source-line="21" data-uid="ent0010" id="entity_Features"><path d="M156.4358,763.6094 C156.4358,753.6094 194.0598,753.6094 194.0598,753.6094 C194.0598,753.6094 231.6838,753.6094 231.6838,763.6094 L231.6838,825.4375 C231.6838,835.4375 194.0598,835.4375 194.0598,835.4375 C194.0598,835.4375 156.4358,835.4375 156.4358,825.4375 L156.4358,763.6094" fill="#90EE90" style="stroke:#181818;stroke-width:0.5;"/><path d="M156.4358,763.6094 C156.4358,773.6094 194.0598,773.6094 194.0598,773.6094 C194.0598,773.6094 231.6838,773.6094 231.6838,763.6094" fill="none" style="stroke:#181818;stroke-width:0.5;"/><text fill="#000000" font-family="sans-serif" font-size="14" lengthAdjust="spacing" textLength="46.6826" x="166.4358" y="792.1426">Current</text><text fill="#000000" font-family="sans-serif" font-size="14" lengthAdjust="spacing" textLength="40.4482" x="166.4358" y="809.752">Frame</text><text fill="#000000" font-family="sans-serif" font-size="14" lengthAdjust="spacing" textLength="55.248" x="166.4358" y="827.3613">Features</text></g><!--link VideoSource to Frame--><g class="link" data-entity-1="VideoSource" data-entity-2="Frame" data-source-line="25" data-uid="lnk11" id="link_VideoSource_Frame"><path d="M233.9358,119.6694 C233.9358,140.8894 233.9358,169.9094 233.9358,191.2494" fill="none" id="VideoSource-to-Frame" style="stroke:#000000;stroke-width:1;"/><polygon fill="#000000" points="233.9358,197.2494,237.9358,188.2494,233.9358,192.2494,229.9358,188.2494,233.9358,197.2494" style="stroke:#000000;stroke-width:1;"/><text fill="#000000" font-family="sans-serif" font-size="13" lengthAdjust="spacing" textLength="32.519" x="234.9358" y="164.1045">reads</text></g><!--link Frame to YOLODetector--><g class="link" data-entity-1="Frame" data-entity-2="YOLODetector" data-source-line="26" data-uid="lnk12" id="link_Frame_YOLODetector"><path d="M224.9158,235.6494 C211.6958,262.0994 189.8699,305.7432 176.6399,332.1932" fill="none" id="Frame-to-YOLODetector" style="stroke:#000000;stroke-width:1;"/><polygon fill="#000000" points="173.9558,337.5594,181.5594,331.2995,176.1925,333.0876,174.4045,327.7207,173.9558,337.5594" style="stroke:#000000;stroke-width:1;"/><text fill="#000000" font-family="sans-serif" font-size="13" lengthAdjust="spacing" textLength="28.1899" x="207.9358" y="282.1045">input</text></g><!--link YOLODetector to Detections--><g class="link" data-entity-1="YOLODetector" data-entity-2="Detections" data-source-line="27" data-uid="lnk13" id="link_YOLODetector_Detections"><path d="M166.2258,375.8094 C167.6558,395.9694 169.563,422.8643 171.283,447.2143" fill="none" id="YOLODetector-to-Detections" style="stroke:#000000;stroke-width:1;"/><polygon fill="#000000" points="171.7058,453.1994,175.0617,443.9399,171.3535,448.2118,167.0816,444.5036,171.7058,453.1994" style="stroke:#000000;stroke-width:1;"/><text fill="#000000" font-family="sans-serif" font-size="13" lengthAdjust="spacing" textLength="53.479" x="170.9358" y="420.1045">produces</text></g><!--link Frame to FeatureExtractor--><g class="link" data-entity-1="Frame" data-entity-2="FeatureExtractor" data-source-line="28" data-uid="lnk14" id="link_Frame_FeatureExtractor"><path d="M240.7058,235.7494 C259.4058,288.6794 307.5858,446.8194 264.9358,567.6094 C255.0658,595.5594 236.4848,617.0159 219.3348,633.3159" fill="none" id="Frame-to-FeatureExtractor" style="stroke:#000000;stroke-width:1;"/><polygon fill="#000000" points="214.9858,637.4494,224.265,634.1485,218.61,634.0048,218.7537,628.3498,214.9858,637.4494" style="stroke:#000000;stroke-width:1;"/><text fill="#000000" font-family="sans-serif" font-size="13" lengthAdjust="spacing" textLength="28.1899" x="281.9358" y="420.1045">input</text></g><!--link Detections to FeatureExtractor--><g class="link" data-entity-1="Detections" data-entity-2="FeatureExtractor" data-source-line="29" data-uid="lnk15" id="link_Detections_FeatureExtractor"><path d="M177.6458,517.9994 C181.8058,553.1294 187.7006,602.891 191.0806,631.451" fill="none" id="Detections-to-FeatureExtractor" style="stroke:#000000;stroke-width:1;"/><polygon fill="#000000" points="191.7858,637.4094,194.7003,628.0016,191.1982,632.444,186.7558,628.9419,191.7858,637.4094" style="stroke:#000000;stroke-width:1;"/><text fill="#000000" font-family="sans-serif" font-size="13" lengthAdjust="spacing" textLength="71.5381" x="184.9358" y="564.1045">crop regions</text></g><!--link FeatureExtractor to Features--><g class="link" data-entity-1="FeatureExtractor" data-entity-2="Features" data-source-line="30" data-uid="lnk16" id="link_FeatureExtractor_Features"><path d="M193.9358,675.6694 C193.9358,695.3994 193.9358,721.6194 193.9358,747.3994" fill="none" id="FeatureExtractor-to-Features" style="stroke:#000000;stroke-width:1;"/><polygon fill="#000000" points="193.9358,753.3994,197.9358,744.3994,193.9358,748.3994,189.9358,744.3994,193.9358,753.3994" style="stroke:#000000;stroke-width:1;"/><text fill="#000000" font-family="sans-serif" font-size="13" lengthAdjust="spacing" textLength="45.5127" x="194.9358" y="720.1045">extracts</text></g><!--SRC=[TLAnJiCm4Dtz5QSkBEt2s861baf8Y4fKgeGeWnDVKwkk7PrjGeNuTsmdTTq2KtBlthjtxnAxbxhbn0zGcqDhD6gtSaU5G5WxhXk5p6OA9pBTp2X3K2bUxujM5Sg6ZDUYxtSxwKffddv_HLIosJcxFrRAbtp17Q-unJ_f3I5gnfnqOT4vEYuL2bXBxARmg5llnX4D0QJHO-1Qm0AvyuJmyEc89vonRV1162N12BuOmDjQ2ZImCfvgV0Tk8G5zVUuleZ2rqnlxphEowp3lTVcq75Onb1GHEG61SOfPI3Vw1QrNpeuYFyEsi1dIRFGvpc0uVtnUVjnUnnsy1pI35_upJnG-pqQdJE7Ha_ijJaNSuGRcGGHRPJhBYll0P7BN7mIcuU_XmhA-YdWPExHbl3cx02Fh73PmMZB2rrXEkGwG9nN2VtWrcJPirQHB_keNecYDVSEo7m00]--></g></svg>